<svg width="11" height="10" viewBox="0 0 11 10" fill="none" xmlns="http://www.w3.org/2000/svg">
<path d="M4.07774 1.33481C3.93398 0.975413 3.5859 0.739746 3.19881 0.739746H1.89682C1.40152 0.739746 1 1.14117 1 1.63647C1 5.8465 4.41301 9.2595 8.62304 9.2595C9.11834 9.2595 9.51976 8.85795 9.51976 8.36265L9.51998 7.06044C9.51998 6.67336 9.28437 6.32533 8.92497 6.18157L7.67709 5.6826C7.35425 5.55346 6.98669 5.61158 6.71957 5.83417L6.39751 6.10278C6.02139 6.41622 5.46797 6.39129 5.12176 6.04509L4.21489 5.13739C3.86869 4.79118 3.84311 4.23821 4.15654 3.86209L4.4251 3.54005C4.64769 3.27293 4.70633 2.90526 4.57719 2.58242L4.07774 1.33481Z" stroke="#BABABA" stroke-linecap="round" stroke-linejoin="round"/>
</svg>
