<svg width="14" height="10" viewBox="0 0 14 10" fill="none" xmlns="http://www.w3.org/2000/svg">
<path d="M9.4 5.66667L12.5338 7.988C12.579 8.0214 12.6315 8.04057 12.6857 8.04345C12.7399 8.04633 12.7938 8.03282 12.8416 8.00436C12.8894 7.9759 12.9294 7.93356 12.9573 7.88184C12.9852 7.83012 13 7.77096 13 7.71067V2.24667C13 2.18802 12.9861 2.1304 12.9597 2.07963C12.9332 2.02887 12.8952 1.98675 12.8494 1.95753C12.8037 1.92832 12.7518 1.91304 12.699 1.91324C12.6462 1.91344 12.5944 1.92911 12.5488 1.95867L9.4 4M2.2 1H8.2C8.86274 1 9.4 1.59695 9.4 2.33333V7.66667C9.4 8.40305 8.86274 9 8.2 9H2.2C1.53726 9 1 8.40305 1 7.66667V2.33333C1 1.59695 1.53726 1 2.2 1Z" stroke="#BABABA" stroke-linecap="round" stroke-linejoin="round"/>
</svg>
