<svg width="21" height="21" viewBox="0 0 21 21" fill="none" xmlns="http://www.w3.org/2000/svg">
<path d="M5.11924 1.91848C7.0455 0.514979 9.40963 -0.154581 11.7857 0.0307886C14.1619 0.216166 16.3939 1.24394 18.0792 2.92923C19.7645 4.61452 20.7923 6.84655 20.9776 9.22268C21.163 11.5988 20.4935 13.9634 19.0899 15.8897C17.6864 17.8158 15.641 19.1774 13.3224 19.729C11.1442 20.2472 8.85953 20.0184 6.83262 19.0869L1.3209 20.9556C0.960518 21.0776 0.562133 20.9844 0.293072 20.7154C0.0240218 20.4463 -0.0692277 20.0479 0.0528375 19.6875L1.921 14.1753C0.989797 12.1486 0.761258 9.86401 1.2794 7.68606C1.83103 5.36739 3.19296 3.32204 5.11924 1.91848ZM11.63 2.02493C9.72918 1.87668 7.83793 2.41197 6.29698 3.53469C4.75595 4.65754 3.66651 6.29402 3.2252 8.14895C2.78391 10.0038 3.01952 11.9554 3.88975 13.6519C4.01321 13.8925 4.03414 14.1731 3.94737 14.4292L2.59727 18.4112L6.5792 17.0616L6.67637 17.0337C6.90495 16.9812 7.14597 17.0107 7.35655 17.1187C9.05304 17.9889 11.0046 18.2245 12.8595 17.7832C14.7144 17.3419 16.3509 16.2525 17.4737 14.7115C18.5965 13.1705 19.1318 11.2793 18.9835 9.37844C18.8352 7.47751 18.0129 5.69202 16.6647 4.34378C15.3164 2.99554 13.5309 2.17323 11.63 2.02493Z" fill="#E6E6E6"/>
</svg>
