
    <svg
      width="24"
      height="24"
      viewBox="0 0 24 24"
      fill="none"
      xmlns="http://www.w3.org/2000/svg"
    >
      <path
        d="M22 9H18C17.4477 9 17 8.55229 17 8C17 7.44771 17.4477 7 18 7H19V3C19 2.44772 19.4477 2 20 2C20.5523 2 21 2.44772 21 3V7H22C22.5523 7 23 7.44771 23 8C23 8.55229 22.5523 9 22 9ZM19 12C19 11.4477 19.4477 11 20 11C20.5523 11 21 11.4477 21 12V21C21 21.5523 20.5523 22 20 22C19.4477 22 19 21.5523 19 21V12ZM14 17H13V21C13 21.5523 12.5523 22 12 22C11.4477 22 11 21.5523 11 21V17H10C9.44771 17 9 16.5523 9 16C9 15.4477 9.44771 15 10 15H14C14.5523 15 15 15.4477 15 16C15 16.5523 14.5523 17 14 17ZM11 3C11 2.44772 11.4477 2 12 2C12.5523 2 13 2.44772 13 3L13 12C13 12.5523 12.5523 13 12 13C11.4477 13 11 12.5523 11 12L11 3ZM6 11H2C1.44772 11 1 10.5523 1 10C1 9.44771 1.44772 9 2 9H3L3 3C3 2.44772 3.44772 2 4 2C4.55228 2 5 2.44772 5 3V9H6C6.55228 9 7 9.44771 7 10C7 10.5523 6.55228 11 6 11ZM3 14C3 13.4477 3.44772 13 4 13C4.55228 13 5 13.4477 5 14L5 21C5 21.5523 4.55228 22 4 22C3.44772 22 3 21.5523 3 21L3 14Z"
        fill="#BBBBBB"
      />
    </svg>
