<svg width="22" height="20" viewBox="0 0 22 20" fill="none" xmlns="http://www.w3.org/2000/svg">
<path d="M20 6.50049C20 5.30701 19.526 4.16227 18.6821 3.31836C17.8382 2.47445 16.6935 2.00049 15.5 2.00049C14.7202 2.00049 14.1131 2.11048 13.5518 2.35498C12.984 2.6023 12.4 3.01456 11.707 3.70752C11.3165 4.09804 10.6835 4.09804 10.293 3.70752C9.60001 3.01456 9.01604 2.6023 8.44824 2.35498C7.88687 2.11048 7.27982 2.00049 6.5 2.00049C5.30653 2.00049 4.16178 2.47445 3.31787 3.31836C2.47396 4.16227 2 5.30701 2 6.50049C2 8.23196 3.05522 9.64957 4.41846 11.0103L4.69482 11.2817L4.70703 11.2935L11 17.5864L17.3003 11.2861C18.7924 9.82402 20 8.33638 20 6.50049ZM22 6.50049C22 9.24454 20.1875 11.257 18.6997 12.7148L11.707 19.7075C11.3165 20.098 10.6835 20.098 10.293 19.7075L3.29297 12.7075V12.707C1.78984 11.2525 0 9.24606 0 6.50049C0 4.77658 0.684822 3.12328 1.90381 1.9043C3.1228 0.68531 4.77609 0.000488281 6.5 0.000488281C7.48009 0.000488281 8.37304 0.14058 9.24658 0.520996C9.85952 0.787954 10.432 1.1601 11 1.64014C11.568 1.1601 12.1405 0.787954 12.7534 0.520996C13.627 0.14058 14.5199 0.000488281 15.5 0.000488281C17.2239 0.000488281 18.8772 0.685311 20.0962 1.9043C21.3152 3.12328 22 4.77658 22 6.50049Z" fill="#E6E6E6"/>
</svg>
