<svg width="4" height="18" viewBox="0 0 4 18" fill="none" xmlns="http://www.w3.org/2000/svg">
<path d="M2 10.0001C2.55228 10.0001 3 9.55241 3 9.00012C3 8.44784 2.55228 8.00012 2 8.00012C1.44772 8.00012 1 8.44784 1 9.00012C1 9.55241 1.44772 10.0001 2 10.0001Z" stroke="#BABABA" stroke-width="2" stroke-linecap="round" stroke-linejoin="round"/>
<path d="M2 3.00012C2.55228 3.00012 3 2.55241 3 2.00012C3 1.44784 2.55228 1.00012 2 1.00012C1.44772 1.00012 1 1.44784 1 2.00012C1 2.55241 1.44772 3.00012 2 3.00012Z" stroke="#BABABA" stroke-width="2" stroke-linecap="round" stroke-linejoin="round"/>
<path d="M2 17.0001C2.55228 17.0001 3 16.5524 3 16.0001C3 15.4478 2.55228 15.0001 2 15.0001C1.44772 15.0001 1 15.4478 1 16.0001C1 16.5524 1.44772 17.0001 2 17.0001Z" stroke="#BABABA" stroke-width="2" stroke-linecap="round" stroke-linejoin="round"/>
</svg>
