<svg width="26" height="25" viewBox="0 0 26 25" fill="none" xmlns="http://www.w3.org/2000/svg">
<path d="M21.1127 11.2357C21.1127 6.06726 16.9229 1.87739 11.7545 1.87736C6.5861 1.87736 2.39622 6.06724 2.39622 11.2357C2.39625 16.4041 6.58612 20.5938 11.7545 20.5938C16.9229 20.5938 21.1127 16.4041 21.1127 11.2357ZM22.6302 11.2357C22.6302 13.9658 21.6242 16.4609 19.9627 18.3707L24.9373 23.3454L24.9642 23.3737C25.2333 23.6716 25.2243 24.1313 24.9373 24.4184C24.6502 24.7055 24.1905 24.7145 23.8926 24.4454L23.8643 24.4184L18.8896 19.4438C16.9798 21.1053 14.4847 22.1114 11.7545 22.1114C5.748 22.1114 0.878689 17.2422 0.878662 11.2357C0.878662 5.22912 5.74798 0.359802 11.7545 0.359802C17.7611 0.359829 22.6302 5.22914 22.6302 11.2357Z" fill="white"/>
</svg>
