<svg width="16" height="18" viewBox="0 0 16 18" fill="none" xmlns="http://www.w3.org/2000/svg">
<path d="M1.43579 7.75487C1.14526 7.91829 0.854737 8.08171 0.564212 8.24513C0.741665 8.66036 0.922246 9.07383 1.10595 9.48554C2.17435 11.8799 3.3485 14.2148 4.62842 16.4903L5.44913 17.9493L6.34482 16.5351C9.2713 11.9143 12.0775 7.21737 14.7635 2.44429C14.9839 2.05255 15.2036 1.66029 15.4224 1.26753C15.1408 1.08918 14.8592 0.910825 14.5776 0.732474C14.316 1.09819 14.0553 1.46441 13.7954 1.83115C10.6284 6.29959 7.58166 10.8442 4.65518 15.4649L6.37158 15.5097C5.09165 13.2343 3.70597 11.0184 2.21452 8.86197C1.95807 8.49118 1.69849 8.12214 1.43579 7.75487Z" fill="#4A9909"/>
</svg>
