<svg width="22" height="22" viewBox="0 0 22 22" fill="none" xmlns="http://www.w3.org/2000/svg">
<path d="M5.87 5.87C5.00764 6.57873 4.30313 7.46008 3.80178 8.45739C3.30043 9.4547 3.01334 10.5459 2.95895 11.6608C2.90457 12.7757 3.08411 13.8896 3.48601 14.931C3.88792 15.9724 4.50331 16.9181 5.2926 17.7074C6.08189 18.4967 7.02763 19.1121 8.06899 19.514C9.11036 19.9159 10.2243 20.0954 11.3392 20.041C12.4541 19.9867 13.5453 19.6996 14.5426 19.1982C15.5399 18.6969 16.4213 17.9924 17.13 17.13M18.9 13.25C19.0968 12.0036 18.996 10.7283 18.6058 9.52823C18.2156 8.3282 17.5471 7.23749 16.6548 6.34521C15.7625 5.45293 14.6718 4.78438 13.4718 4.39417C12.2717 4.00396 10.9964 3.90316 9.75 4.1M21 5L18 2M5.26 17.67L3 20M1 1L21 21M3 3L1 5" stroke="#FF4E4E" stroke-width="2" stroke-linecap="round" stroke-linejoin="round"/>
</svg>
