<svg width="19" height="20" viewBox="0 0 19 20" fill="none" xmlns="http://www.w3.org/2000/svg">
<path d="M3.69024 4.36241H15.3855C15.5221 4.36234 15.6586 4.37101 15.7941 4.38836C15.7482 4.06592 15.6374 3.75613 15.4685 3.47766C15.2996 3.19918 15.0761 2.9578 14.8114 2.76805C14.5467 2.57831 14.2463 2.44413 13.9283 2.37362C13.6103 2.30311 13.2814 2.29771 12.9613 2.35777L3.34303 3.99985H3.33207C2.72833 4.11531 2.19144 4.45689 1.83105 4.95485C2.37401 4.56866 3.02395 4.36155 3.69024 4.36241Z" fill="white"/>
<path d="M15.3859 5.24121H3.69061C3.07047 5.24189 2.47591 5.48854 2.0374 5.92705C1.59889 6.36556 1.35224 6.96012 1.35156 7.58026V14.5974C1.35224 15.2176 1.59889 15.8121 2.0374 16.2506C2.47591 16.6891 3.07047 16.9358 3.69061 16.9365H15.3859C16.006 16.9358 16.6006 16.6891 17.0391 16.2506C17.4776 15.8121 17.7243 15.2176 17.7249 14.5974V7.58026C17.7243 6.96012 17.4776 6.36556 17.0391 5.92705C16.6006 5.48854 16.006 5.24189 15.3859 5.24121ZM13.6499 12.2584C13.4186 12.2584 13.1924 12.1898 13.0001 12.0613C12.8078 11.9328 12.6579 11.7501 12.5694 11.5364C12.4808 11.3227 12.4577 11.0875 12.5028 10.8607C12.5479 10.6338 12.6593 10.4254 12.8229 10.2619C12.9864 10.0983 13.1948 9.98691 13.4217 9.94179C13.6486 9.89666 13.8837 9.91982 14.0974 10.0083C14.3111 10.0969 14.4938 10.2468 14.6223 10.4391C14.7508 10.6314 14.8194 10.8575 14.8194 11.0888C14.8194 11.399 14.6962 11.6965 14.4768 11.9158C14.2575 12.1351 13.96 12.2584 13.6499 12.2584Z" fill="white"/>
<path d="M1.37012 10.046V6.40947C1.37012 5.61749 1.80869 4.28971 3.3309 4.00208C4.62286 3.75977 5.90203 3.75977 5.90203 3.75977C5.90203 3.75977 6.74263 4.34453 6.04822 4.34453C5.35382 4.34453 5.37209 5.23995 6.04822 5.23995C6.72435 5.23995 6.04822 6.09882 6.04822 6.09882L3.32542 9.1871L1.37012 10.046Z" fill="white"/>
</svg>
