<svg width="806" height="116" viewBox="0 0 806 116" fill="none" xmlns="http://www.w3.org/2000/svg">
<path d="M373.373 0.5H434.563C449.873 0.500247 462.284 12.9118 462.284 28.2217C462.284 43.2016 474.428 55.3447 489.408 55.3447H775.423C792.034 55.3449 805.5 68.8116 805.5 85.4229C805.5 102.034 792.034 115.5 775.423 115.5H30.5771C13.9661 115.5 0.50014 102.034 0.5 85.4229C0.5 68.8116 13.966 55.3449 30.5771 55.3447H318.528C333.508 55.3446 345.652 43.2015 345.652 28.2217C345.652 12.9117 358.063 0.500115 373.373 0.5Z" fill="#181818" stroke="url(#paint0_linear_1314_2667)"/>
<defs>
<linearGradient id="paint0_linear_1314_2667" x1="403" y1="0" x2="403" y2="116" gradientUnits="userSpaceOnUse">
<stop stop-color="#BABABA" stop-opacity="0.32"/>
<stop offset="1" stop-color="#303030" stop-opacity="0"/>
</linearGradient>
</defs>
</svg>
