<svg width="100" height="100" viewBox="0 0 100 100" fill="none" xmlns="http://www.w3.org/2000/svg">
<path d="M93.6799 52.4756C97.1262 52.6709 100.119 50.027 99.8832 46.5832C99.3082 38.189 96.6208 30.0392 92.0258 22.9106C86.2971 14.0233 77.8985 7.18089 68.0368 3.3666C58.1751 -0.447691 47.3581 -1.03746 37.1401 1.68205C26.9222 4.40156 17.8294 10.2903 11.1685 18.5021C4.50757 26.7139 0.621387 36.826 0.0684204 47.3852C-0.484546 57.9443 2.32417 68.407 8.09095 77.2696C13.8577 86.1322 22.2857 92.9385 32.1637 96.7104C40.0868 99.7359 48.6158 100.684 56.948 99.515C60.3663 99.0353 62.336 95.5613 61.4339 92.2295C60.5318 88.8977 57.0949 86.9842 53.6596 87.321C47.9081 87.885 42.0742 87.1145 36.6227 85.0328C29.2143 82.2039 22.8933 77.0992 18.5682 70.4522C14.2431 63.8052 12.1366 55.9583 12.5513 48.0389C12.966 40.1195 15.8807 32.5355 20.8764 26.3766C25.8721 20.2178 32.6917 15.8012 40.3551 13.7615C48.0186 11.7219 56.1313 12.1642 63.5276 15.025C70.9239 17.8857 77.2228 23.0175 81.5193 29.683C84.6809 34.5877 86.6384 40.1371 87.2732 45.8812C87.6523 49.3121 90.2337 52.2803 93.6799 52.4756Z" fill="url(#paint0_linear_3924_1489)"/>
<defs>
<linearGradient id="paint0_linear_3924_1489" x1="50" y1="0" x2="50" y2="100" gradientUnits="userSpaceOnUse">
<stop stop-color="#3344D9"/>
<stop offset="1" stop-color="#BBBBBB"/>
</linearGradient>
</defs>
</svg>
