<svg width="14" height="14" viewBox="0 0 14 14" fill="none" xmlns="http://www.w3.org/2000/svg">
<path d="M5.9608 12.4001C6.06613 12.5825 6.21761 12.7339 6.40003 12.8392C6.58244 12.9446 6.78937 13 7 13C7.21063 13 7.41756 12.9446 7.59997 12.8392C7.78239 12.7339 7.93387 12.5825 8.0392 12.4001M13 4.60002C13 3.22001 12.52 2.02 11.8 1M2.2 1C1.48 2.02 1 3.22001 1 4.60002M1.7572 8.99564C1.67882 9.08154 1.62709 9.18838 1.60831 9.30315C1.58953 9.41792 1.60451 9.53567 1.65142 9.64208C1.69834 9.74849 1.77516 9.83897 1.87255 9.90252C1.96995 9.96608 2.08371 9.99995 2.2 10H11.8C11.9163 10.0001 12.0301 9.96633 12.1275 9.9029C12.225 9.83947 12.3019 9.74909 12.3489 9.64275C12.396 9.53641 12.4111 9.41869 12.3925 9.30391C12.3738 9.18913 12.3223 9.08224 12.244 8.99624C11.446 8.17363 10.6 7.29943 10.6 4.60002C10.6 3.64523 10.2207 2.72955 9.54559 2.05442C8.87045 1.37929 7.95478 1 7 1C6.04522 1 5.12955 1.37929 4.45442 2.05442C3.77928 2.72955 3.4 3.64523 3.4 4.60002C3.4 7.29943 2.5534 8.17363 1.7572 8.99564Z" stroke="#BBBBBB" stroke-width="1.5" stroke-linecap="round" stroke-linejoin="round"/>
</svg>
